<svg xmlns="http://www.w3.org/2000/svg" viewBox="0 0 200 300"><rect width="200" height="300" fill="#f3e9d6"/><g fill="none" stroke="#743345" stroke-width="1.4"><rect x="10" y="10" width="180" height="280"/><rect x="16" y="16" width="168" height="268" stroke-width=".65" opacity=".55"/></g><g fill="none" stroke="#743345" stroke-width="1.7"><ellipse cx="100" cy="150" rx="43" ry="64"/><path id="moon" d="M100 106C68 106 64 139 100 144C82 132 82 120 100 106Z" fill="#b39358" stroke="none"/><use href="#moon" transform="rotate(180 100 150)"/><path d="M84 150h32M100 140v20"/></g><g id="edge" fill="none" stroke="#743345" stroke-width="1.2" opacity=".7"><path d="M25 37V25H37M163 25H175V37"/><path d="M92 29h16"/></g><use href="#edge" transform="rotate(180 100 150)"/><g id="grain" fill="#743345" opacity=".08"><circle cx="34" cy="58" r=".7"/><circle cx="162" cy="83" r=".7"/><circle cx="49" cy="113" r=".6"/><circle cx="150" cy="170" r=".6"/><path d="M28 148h3M167 62h3M54 219h2" stroke="#743345" stroke-width=".5"/></g><use href="#grain" transform="rotate(180 100 150)"/></svg>